<svg aria-hidden="true" focusable="false" role="presentation" class="" viewBox="0 0 21 13"><g fill="none" fill-rule="evenodd"><path d="M10.394 1C6.821 1 3.581 2.929 1.19 6.062a.723.723 0 0 0 0 .872C3.581 10.071 6.821 12 10.394 12c3.573 0 6.813-1.929 9.204-5.062a.723.723 0 0 0 0-.872C17.207 2.929 13.967 1 10.394 1zm.256 9.373c-2.371.147-4.33-1.782-4.18-4.126.122-1.933 1.71-3.5 3.668-3.62 2.372-.147 4.33 1.782 4.18 4.126-.125 1.929-1.713 3.495-3.668 3.62zm-.118-1.79c-1.278.08-2.334-.958-2.25-2.219.066-1.042.922-1.884 1.978-1.952 1.278-.079 2.334.96 2.25 2.22a2.113 2.113 0 0 1-1.978 1.952z" fill="#D4D4D4" fill-rule="nonzero"></path><path d="M.559 12l20-11" stroke="#D4D4D4" stroke-linecap="square"></path></g></svg>